# xmcd
#
# Track frame offsets:
#	150
#	23355
#	48349
#	67869
#	85673
#	101866
#	117589
#	140688
#	152949
#	172917
#
# Disc length: 2617 seconds
#
# Revision: 0
# Processed by: cddbd v1.5.1PL0 Copyright (c) Steve Scherf et al.
# Submitted via: dBpowerAMP V4.0
#
DISCID=7b0a370a
DTITLE=Roy Cox and the BluesKnights - Before I Go
DYEAR=1900
DGENRE=Blues
TTITLE0=Everyman's Needs
TTITLE1=The Sherrif Don't Know
TTITLE2=Before I Go
TTITLE3=American Music
TTITLE4=Smack Dab in the Middle
TTITLE5=A Blues Night in the City
TTITLE6=Down in the Gutter
TTITLE7=Teena\s Too Young
TTITLE8=Lovin' You Baby
TTITLE9=All The King's Men
EXTD=
EXTT0=
EXTT1=
EXTT2=
EXTT3=
EXTT4=
EXTT5=
EXTT6=
EXTT7=
EXTT8=
EXTT9=
PLAYORDER=
